<svg width="16" height="14" viewBox="0 0 16 14" fill="none" xmlns="http://www.w3.org/2000/svg">
<path d="M9.91094 3.21909C10.5601 3.32481 11.1567 3.58982 11.6244 3.9802C12.092 4.37058 12.4095 4.86857 12.5362 5.41044M9.91094 1C11.2596 1.12507 12.5173 1.62921 13.4774 2.42965C14.4376 3.23009 15.0431 4.27926 15.1946 5.40489M14.53 9.83197V11.4963C14.5308 11.6508 14.4929 11.8037 14.4187 11.9453C14.3445 12.0869 14.2358 12.2139 14.0994 12.3184C13.963 12.4228 13.802 12.5024 13.6266 12.5519C13.4513 12.6014 13.2655 12.6197 13.0812 12.6058C11.036 12.4203 9.07153 11.837 7.34553 10.9027C5.7397 10.0509 4.37824 8.91447 3.35784 7.57405C2.23462 6.12676 1.53562 4.47897 1.31747 2.76417C1.30086 2.61076 1.3227 2.45614 1.3816 2.31016C1.4405 2.16418 1.53518 2.03004 1.65959 1.91627C1.784 1.80251 1.93543 1.71161 2.10423 1.64937C2.27304 1.58713 2.45551 1.55492 2.64005 1.55477H4.6339C4.95644 1.55212 5.26913 1.64746 5.51369 1.82302C5.75825 1.99858 5.91798 2.24238 5.96313 2.50898C6.04728 3.0416 6.20335 3.56456 6.42836 4.06789C6.51778 4.26646 6.53713 4.48226 6.48412 4.68972C6.43112 4.89719 6.30797 5.08762 6.12928 5.23846L5.28522 5.94302C6.23134 7.33192 7.60902 8.4819 9.27291 9.27165L10.117 8.56709C10.2977 8.41793 10.5258 8.31514 10.7744 8.27089C11.0229 8.22665 11.2814 8.2428 11.5193 8.31744C12.1223 8.50526 12.7488 8.63554 13.3869 8.70578C13.7097 8.7438 14.0046 8.87954 14.2153 9.08719C14.4261 9.29483 14.5381 9.5599 14.53 9.83197Z" stroke="black" stroke-linecap="round" stroke-linejoin="round"/>
</svg>
