<svg width="11" height="14" viewBox="0 0 11 14" fill="none" xmlns="http://www.w3.org/2000/svg">
<path d="M10.0019 5.82233C10.0019 9.57303 5.44269 12.7879 5.44269 12.7879C5.44269 12.7879 0.883453 9.57303 0.883453 5.82233C0.883453 4.54337 1.3638 3.31679 2.21882 2.41243C3.07384 1.50807 4.2335 1 5.44269 1C6.65187 1 7.81153 1.50807 8.66655 2.41243C9.52158 3.31679 10.0019 4.54337 10.0019 5.82233Z" stroke="black" stroke-linecap="round" stroke-linejoin="round"/>
<path d="M5.44269 7.42973C6.28202 7.42973 6.96243 6.71005 6.96243 5.82229C6.96243 4.93452 6.28202 4.21484 5.44269 4.21484C4.60336 4.21484 3.92294 4.93452 3.92294 5.82229C3.92294 6.71005 4.60336 7.42973 5.44269 7.42973Z" stroke="black" stroke-linecap="round" stroke-linejoin="round"/>
</svg>
